<svg width="21" height="42" viewBox="0 0 21 42" fill="none" xmlns="http://www.w3.org/2000/svg">
<path d="M20.04 -2.86102e-06H23.04V-3H20.04V-2.86102e-06ZM20.04 42V45H23.04V42H20.04ZM8.16 42H5.16V45H8.16V42ZM8.16 9.18H11.16V6.18H8.16V9.18ZM0.36 9.18H-2.64V12.18H0.36V9.18ZM0.36 -2.86102e-06V-3H-2.64V-2.86102e-06H0.36ZM17.04 -2.86102e-06V42H23.04V-2.86102e-06H17.04ZM20.04 39H8.16V45H20.04V39ZM11.16 42V9.18H5.16V42H11.16ZM8.16 6.18H0.36V12.18H8.16V6.18ZM3.36 9.18V-2.86102e-06H-2.64V9.18H3.36ZM0.36 3H20.04V-3H0.36V3Z" fill="#B798E0"/>
</svg>
