<svg width="36" height="43" viewBox="0 0 36 43" fill="none" xmlns="http://www.w3.org/2000/svg">
<path d="M35.5 33.58H38.5V30.58H35.5V33.58ZM35.5 43V46H38.5V43H35.5ZM2.8 43H-0.2V46H2.8V43ZM2.8 35.56L0.75096 33.3688L-0.2 34.258V35.56H2.8ZM18.52 20.86L20.569 23.0512L20.5762 23.0446L20.5832 23.0379L18.52 20.86ZM21.58 17.2L24.2417 18.5841L24.2526 18.5629L24.2633 18.5416L21.58 17.2ZM20.98 10.9L22.8906 8.58711L20.98 10.9ZM12.64 10.84L14.0475 13.4893L14.0621 13.4816L14.0766 13.4737L12.64 10.84ZM9.46 13.84L7.99853 16.4599L10.471 17.8392L11.991 15.4506L9.46 13.84ZM0.64 8.92L-1.92914 7.37096L-3.53136 10.0283L-0.821466 11.5399L0.64 8.92ZM7.54 2.5L8.93872 5.15398L8.93872 5.15398L7.54 2.5ZM26.5 1.72L25.3237 4.47977L25.3318 4.4832L25.3398 4.48658L26.5 1.72ZM32.26 6.22L29.7952 7.93024L29.8153 7.95912L29.836 7.98751L32.26 6.22ZM32.86 19.42L30.1662 18.0995L30.1608 18.1106L30.1554 18.1218L32.86 19.42ZM27.22 26.26L25.1957 24.0459L25.1897 24.0514L25.1838 24.0569L27.22 26.26ZM19.3 33.58L17.2638 31.3769L11.6342 36.58H19.3V33.58ZM32.5 33.58V43H38.5V33.58H32.5ZM35.5 40H2.8V46H35.5V40ZM5.8 43V35.56H-0.2V43H5.8ZM4.84904 37.7512L20.569 23.0512L16.471 18.6688L0.75096 33.3688L4.84904 37.7512ZM20.5832 23.0379C22.1749 21.5299 23.4876 20.0341 24.2417 18.5841L18.9184 15.8159C18.6324 16.3659 17.9051 17.3101 16.4568 18.6821L20.5832 23.0379ZM24.2633 18.5416C24.9667 17.1348 25.36 15.6383 25.36 14.08H19.36C19.36 14.6017 19.2333 15.1852 18.8967 15.8584L24.2633 18.5416ZM25.36 14.08C25.36 11.9655 24.6019 10.0007 22.8906 8.58711L19.0694 13.2129C19.1981 13.3193 19.36 13.4745 19.36 14.08H25.36ZM22.8906 8.58711C21.229 7.21445 19.0967 6.76 16.96 6.76V12.76C18.3433 12.76 18.891 13.0655 19.0694 13.2129L22.8906 8.58711ZM16.96 6.76C14.9176 6.76 12.981 7.23675 11.2034 8.20631L14.0766 13.4737C14.939 13.0032 15.8824 12.76 16.96 12.76V6.76ZM11.2325 8.19065C9.45842 9.13315 8.02463 10.5077 6.92902 12.2294L11.991 15.4506C12.5754 14.5323 13.2616 13.9068 14.0475 13.4893L11.2325 8.19065ZM10.9215 11.2201L2.10147 6.30005L-0.821466 11.5399L7.99853 16.4599L10.9215 11.2201ZM3.20914 10.469C4.55159 8.24253 6.43525 6.47337 8.93872 5.15398L6.14128 -0.153977C2.72475 1.64663 0.00840539 4.15747 -1.92914 7.37096L3.20914 10.469ZM8.93872 5.15398C11.3868 3.86378 14.3872 3.16 18.04 3.16V-2.84C13.6128 -2.84 9.61323 -1.98379 6.14128 -0.153976L8.93872 5.15398ZM18.04 3.16C20.9174 3.16 23.324 3.62744 25.3237 4.47977L27.6763 -1.03977C24.796 -2.26744 21.5626 -2.84 18.04 -2.84V3.16ZM25.3398 4.48658C27.3623 5.33471 28.8009 6.4972 29.7952 7.93024L34.7248 4.50975C32.9991 2.02279 30.5977 0.185286 27.6602 -1.04659L25.3398 4.48658ZM29.836 7.98751C30.8322 9.35372 31.36 10.9633 31.36 12.94H37.36C37.36 9.79669 36.4878 6.92628 34.684 4.45248L29.836 7.98751ZM31.36 12.94C31.36 14.7639 30.964 16.4721 30.1662 18.0995L35.5538 20.7405C36.756 18.2879 37.36 15.6761 37.36 12.94H31.36ZM30.1554 18.1218C29.4392 19.614 27.8848 21.5873 25.1957 24.0459L29.2443 28.4741C32.1552 25.8127 34.3608 23.226 35.5646 20.7182L30.1554 18.1218ZM25.1838 24.0569L17.2638 31.3769L21.3362 35.7831L29.2562 28.4631L25.1838 24.0569ZM19.3 36.58H35.5V30.58H19.3V36.58Z" fill="#B798E0"/>
</svg>
