<svg width="36" height="43" viewBox="0 0 36 43" fill="none" xmlns="http://www.w3.org/2000/svg">
<path d="M24.58 16.8L22.3826 14.7576L18.7566 18.6587L23.9722 19.7378L24.58 16.8ZM32.56 21.12L30.2763 23.0654L30.2956 23.0881L30.3154 23.1105L32.56 21.12ZM33.34 35.76L30.8149 34.1401L30.804 34.1572L30.7933 34.1743L33.34 35.76ZM27.22 40.92L28.4974 43.6345L28.5059 43.6305L28.5144 43.6264L27.22 40.92ZM8.26 41.76L7.53239 44.6704L7.54179 44.6728L8.26 41.76ZM0.76 38.7L-1.94117 37.3947L-3.11401 39.8219L-0.825675 41.2467L0.76 38.7ZM5.08 29.76L6.77188 27.2826L3.89472 25.3177L2.37883 28.4547L5.08 29.76ZM10.6 32.34L9.7535 35.2181L9.761 35.2203L9.76852 35.2225L10.6 32.34ZM21.58 32.1L23.1852 34.6345L21.58 32.1ZM11.98 24.78H8.98V27.78H11.98V24.78ZM11.98 17.28L9.77872 15.2418L8.98 16.1044V17.28H11.98ZM19.48 9.18L21.6813 11.2182L26.3463 6.18H19.48V9.18ZM2.92 9.18H-0.0799999V12.18H2.92V9.18ZM2.92 -2.86102e-06V-3H-0.0799999V-2.86102e-06H2.92ZM33.28 -2.86102e-06H36.28V-3H33.28V-2.86102e-06ZM33.28 7.44L35.4774 9.48243L36.28 8.61892V7.44H33.28ZM23.9722 19.7378C26.9668 20.3574 28.9685 21.5302 30.2763 23.0654L34.8437 19.1746C32.4715 16.3898 29.1532 14.6826 25.1878 13.8622L23.9722 19.7378ZM30.3154 23.1105C31.6715 24.6397 32.38 26.4954 32.38 28.86H38.38C38.38 25.1446 37.2085 21.8403 34.8046 19.1295L30.3154 23.1105ZM32.38 28.86C32.38 30.7563 31.87 32.4955 30.8149 34.1401L35.8651 37.3799C37.53 34.7845 38.38 31.9237 38.38 28.86H32.38ZM30.7933 34.1743C29.8371 35.71 28.2864 37.0845 25.9256 38.2136L28.5144 43.6264C31.6736 42.1155 34.2029 40.05 35.8867 37.3457L30.7933 34.1743ZM25.9426 38.2055C23.7349 39.2445 20.8226 39.84 17.08 39.84V45.84C21.4174 45.84 25.2651 45.1555 28.4974 43.6345L25.9426 38.2055ZM17.08 39.84C14.3659 39.84 11.667 39.5102 8.97822 38.8472L7.54179 44.6728C10.693 45.4498 13.8741 45.84 17.08 45.84V39.84ZM8.98761 38.8496C6.35529 38.1915 4.15576 37.2803 2.34568 36.1533L-0.825675 41.2467C1.60424 42.7597 4.40472 43.8885 7.53239 44.6704L8.98761 38.8496ZM3.46117 40.0053L7.78117 31.0653L2.37883 28.4547L-1.94117 37.3947L3.46117 40.0053ZM3.38812 32.2374C5.30494 33.5465 7.43379 34.5358 9.7535 35.2181L11.4465 29.4619C9.68621 28.9442 8.13506 28.2135 6.77188 27.2826L3.38812 32.2374ZM9.76852 35.2225C12.0967 35.8941 14.4166 36.24 16.72 36.24V30.24C15.0234 30.24 13.2633 29.986 11.4315 29.4575L9.76852 35.2225ZM16.72 36.24C19.093 36.24 21.3389 35.8038 23.1852 34.6345L19.9748 29.5655C19.4211 29.9162 18.427 30.24 16.72 30.24V36.24ZM23.1852 34.6345C25.2382 33.3342 26.38 31.3061 26.38 28.86H20.38C20.38 29.1191 20.3285 29.2253 20.3075 29.2631C20.2855 29.3027 20.215 29.4134 19.9748 29.5655L23.1852 34.6345ZM26.38 28.86C26.38 26.5632 25.3932 24.5449 23.3841 23.268C21.6054 22.1377 19.3211 21.78 16.96 21.78V27.78C18.8789 27.78 19.8046 28.1023 20.1659 28.332C20.2414 28.3799 20.2794 28.4158 20.2958 28.4332C20.3111 28.4495 20.3175 28.4598 20.322 28.4685C20.3266 28.4772 20.38 28.5778 20.38 28.86H26.38ZM16.96 21.78H11.98V27.78H16.96V21.78ZM14.98 24.78V17.28H8.98V24.78H14.98ZM14.1813 19.3182L21.6813 11.2182L17.2787 7.14177L9.77872 15.2418L14.1813 19.3182ZM19.48 6.18H2.92V12.18H19.48V6.18ZM5.92 9.18V-2.86102e-06H-0.0799999V9.18H5.92ZM2.92 3H33.28V-3H2.92V3ZM30.28 -2.86102e-06V7.44H36.28V-2.86102e-06H30.28ZM31.0826 5.39756L22.3826 14.7576L26.7774 18.8424L35.4774 9.48243L31.0826 5.39756Z" fill="#B798E0"/>
</svg>
