<svg width="41" height="42" viewBox="0 0 41 42" fill="none" xmlns="http://www.w3.org/2000/svg">
<path d="M40.64 33.96V36.96H43.64V33.96H40.64ZM34.4 33.96V30.96H31.4V33.96H34.4ZM34.4 42V45H37.4V42H34.4ZM22.82 42H19.82V45H22.82V42ZM22.82 33.96H25.82V30.96H22.82V33.96ZM0.62 33.96H-2.38V36.96H0.62V33.96ZM0.62 26.22L-1.81629 24.4694L-2.38 25.254V26.22H0.62ZM19.46 -2.86102e-06V-3H17.9215L17.0237 -1.75057L19.46 -2.86102e-06ZM31.76 -2.86102e-06L34.2214 1.71513L37.507 -3H31.76V-2.86102e-06ZM14.66 24.54L12.1986 22.8249L8.91303 27.54H14.66V24.54ZM23.18 24.54V27.54H26.18V24.54H23.18ZM23.18 17.4V14.4H20.18V17.4H23.18ZM34.4 17.4H37.4V14.4H34.4V17.4ZM34.4 24.54H31.4V27.54H34.4V24.54ZM40.64 24.54H43.64V21.54H40.64V24.54ZM40.64 30.96H34.4V36.96H40.64V30.96ZM31.4 33.96V42H37.4V33.96H31.4ZM34.4 39H22.82V45H34.4V39ZM25.82 42V33.96H19.82V42H25.82ZM22.82 30.96H0.62V36.96H22.82V30.96ZM3.62 33.96V26.22H-2.38V33.96H3.62ZM3.05629 27.9706L21.8963 1.75056L17.0237 -1.75057L-1.81629 24.4694L3.05629 27.9706ZM19.46 3H31.76V-3H19.46V3ZM29.2986 -1.71514L12.1986 22.8249L17.1214 26.2551L34.2214 1.71513L29.2986 -1.71514ZM14.66 27.54H23.18V21.54H14.66V27.54ZM26.18 24.54V17.4H20.18V24.54H26.18ZM23.18 20.4H34.4V14.4H23.18V20.4ZM31.4 17.4V24.54H37.4V17.4H31.4ZM34.4 27.54H40.64V21.54H34.4V27.54ZM37.64 24.54V33.96H43.64V24.54H37.64Z" fill="#B798E0"/>
</svg>
