<svg width="36" height="43" viewBox="0 0 36 43" fill="none" xmlns="http://www.w3.org/2000/svg">
<path d="M30.78 18.9L28.8276 21.1778L28.8356 21.1846L28.8436 21.1914L30.78 18.9ZM33 35.7L30.4482 34.1225L30.4442 34.1291L30.4402 34.1357L33 35.7ZM26.88 40.92L28.1574 43.6345L28.1659 43.6305L28.1744 43.6264L26.88 40.92ZM7.92 41.76L7.19239 44.6704L7.20179 44.6728L7.92 41.76ZM0.48 38.7L-2.22825 37.4095L-3.37156 39.8089L-1.12747 41.233L0.48 38.7ZM4.74 29.76L6.4041 27.2638L3.52187 25.3424L2.03175 28.4695L4.74 29.76ZM10.26 32.34L9.39796 35.2135L9.40572 35.2158L9.4135 35.2181L10.26 32.34ZM21.24 32.1L22.8452 34.6345L22.8558 34.6277L22.8664 34.6209L21.24 32.1ZM21.3 25.62L19.7565 28.1925H19.7565L21.3 25.62ZM3.54 24.54L0.550925 24.2842L0.272312 27.54H3.54V24.54ZM5.64 -2.86102e-06V-3H2.88576L2.65092 -0.255792L5.64 -2.86102e-06ZM32.4 -2.86102e-06H35.4V-3H32.4V-2.86102e-06ZM32.4 9.18V12.18H35.4V9.18H32.4ZM15.48 9.18V6.18H12.7331L12.4916 8.91632L15.48 9.18ZM14.94 15.3L11.9516 15.0363L11.6636 18.3H14.94V15.3ZM17.76 18.3C23.3252 18.3 26.8136 19.4514 28.8276 21.1778L32.7324 16.6222C29.1464 13.5486 23.9548 12.3 17.76 12.3V18.3ZM28.8436 21.1914C30.9531 22.974 32.04 25.307 32.04 28.5H38.04C38.04 23.693 36.2869 19.626 32.7164 16.6086L28.8436 21.1914ZM32.04 28.5C32.04 30.5458 31.5136 32.3991 30.4482 34.1225L35.5518 37.2775C37.2064 34.6008 38.04 31.6541 38.04 28.5H32.04ZM30.4402 34.1357C29.4807 35.7057 27.9325 37.0912 25.5856 38.2136L28.1744 43.6264C31.3475 42.1088 33.8793 40.0143 35.5598 37.2644L30.4402 34.1357ZM25.6026 38.2055C23.3949 39.2445 20.4826 39.84 16.74 39.84V45.84C21.0774 45.84 24.9251 45.1555 28.1574 43.6345L25.6026 38.2055ZM16.74 39.84C14.0259 39.84 11.327 39.5102 8.63821 38.8472L7.20179 44.6728C10.353 45.4498 13.5341 45.84 16.74 45.84V39.84ZM8.64761 38.8496C6.01738 38.192 3.84725 37.2838 2.08747 36.167L-1.12747 41.233C1.27275 42.7562 4.06262 43.888 7.19239 44.6704L8.64761 38.8496ZM3.18825 39.9905L7.44825 31.0505L2.03175 28.4695L-2.22825 37.4095L3.18825 39.9905ZM3.0759 32.2561C5.01146 33.5465 7.12319 34.531 9.39796 35.2135L11.122 29.4665C9.39681 28.949 7.82854 28.2135 6.4041 27.2638L3.0759 32.2561ZM9.4135 35.2181C11.7167 35.8955 14.0415 36.24 16.38 36.24V30.24C14.6385 30.24 12.8833 29.9845 11.1065 29.4619L9.4135 35.2181ZM16.38 36.24C18.753 36.24 20.9989 35.8038 22.8452 34.6345L19.6348 29.5655C19.0811 29.9162 18.087 30.24 16.38 30.24V36.24ZM22.8664 34.6209C24.9071 33.3043 26.1 31.2835 26.1 28.8H20.1C20.1 29.0413 20.0514 29.149 20.0215 29.202C19.988 29.2614 19.8936 29.3985 19.6136 29.5791L22.8664 34.6209ZM26.1 28.8C26.1 26.3467 24.9476 24.31 22.8435 23.0475L19.7565 28.1925C19.9792 28.3261 20.0304 28.4172 20.0392 28.4328C20.0481 28.4485 20.1 28.5396 20.1 28.8H26.1ZM22.8435 23.0475C20.8816 21.8704 18.0232 21.54 14.94 21.54V27.54C17.9368 27.54 19.3184 27.9296 19.7565 28.1925L22.8435 23.0475ZM14.94 21.54H3.54V27.54H14.94V21.54ZM6.52908 24.7958L8.62908 0.255786L2.65092 -0.255792L0.550925 24.2842L6.52908 24.7958ZM5.64 3H32.4V-3H5.64V3ZM29.4 -2.86102e-06V9.18H35.4V-2.86102e-06H29.4ZM32.4 6.18H15.48V12.18H32.4V6.18ZM12.4916 8.91632L11.9516 15.0363L17.9284 15.5637L18.4684 9.44368L12.4916 8.91632ZM14.94 18.3H17.76V12.3H14.94V18.3Z" fill="#B798E0"/>
</svg>
