<svg width="36" height="44" viewBox="0 0 36 44" fill="none" xmlns="http://www.w3.org/2000/svg">
<path d="M28.78 17.92L27.419 20.5935L27.4384 20.6034L27.458 20.613L28.78 17.92ZM34 22.6L31.4588 24.1945L31.4772 24.2237L31.4962 24.2525L34 22.6ZM33.76 37.06L31.2708 35.3855L31.2639 35.3959L33.76 37.06ZM27.82 42.1L29.0911 44.8174L29.1004 44.813L29.1098 44.8086L27.82 42.1ZM5.26 38.5L7.40529 36.4029H7.40529L5.26 38.5ZM2.8 10.78L0.160515 9.35407L0.154647 9.36504L2.8 10.78ZM29.2 0.939998L29.9022 -1.97667V-1.97667L29.2 0.939998ZM34.72 3.22L37.3957 4.57669L38.6076 2.18659L36.3689 0.713744L34.72 3.22ZM30.4 11.74L28.67 14.1909L31.5059 16.1927L33.0757 13.0967L30.4 11.74ZM15.28 12.1L13.281 9.86303L15.28 12.1ZM12.04 19.36L9.05171 19.0952L8.3967 26.4874L14.0048 21.6271L12.04 19.36ZM22.84 33.94L20.8469 31.6978L20.8259 31.7165L20.8052 31.7356L22.84 33.94ZM22.84 26.2L20.8052 28.4044L20.8259 28.4235L20.8469 28.4422L22.84 26.2ZM14.5 26.26L16.4931 28.5022L16.5159 28.482L16.5382 28.4613L14.5 26.26ZM14.44 33.94L12.3607 36.1025L12.403 36.1432L12.4469 36.1822L14.44 33.94ZM21.52 19.24C23.7206 19.24 25.6695 19.7029 27.419 20.5935L30.141 15.2465C27.4905 13.8971 24.5994 13.24 21.52 13.24V19.24ZM27.458 20.613C29.1667 21.4518 30.4807 22.6356 31.4588 24.1945L36.5412 21.0055C34.9593 18.4844 32.7933 16.5482 30.102 15.227L27.458 20.613ZM31.4962 24.2525C32.4649 25.7204 32.98 27.4354 32.98 29.5H38.98C38.98 26.3646 38.1751 23.4796 36.5038 20.9475L31.4962 24.2525ZM32.98 29.5C32.98 31.788 32.3938 33.7162 31.2708 35.3855L36.2492 38.7345C38.0862 36.0038 38.98 32.892 38.98 29.5H32.98ZM31.2639 35.3959C30.1469 37.0713 28.5993 38.4061 26.5302 39.3914L29.1098 44.8086C32.0807 43.3939 34.4931 41.3687 36.2562 38.7241L31.2639 35.3959ZM26.5489 39.3826C24.5139 40.3344 22.1759 40.84 19.48 40.84V46.84C22.9441 46.84 26.1661 46.1856 29.0911 44.8174L26.5489 39.3826ZM19.48 40.84C14.1097 40.84 10.2076 39.2697 7.40529 36.4029L3.11471 40.5971C7.27236 44.8503 12.8503 46.84 19.48 46.84V40.84ZM7.40529 36.4029C4.63945 33.5735 3.04 29.3114 3.04 23.14H-2.96C-2.96 30.3286 -1.07945 36.3065 3.11471 40.5971L7.40529 36.4029ZM3.04 23.14C3.04 18.7214 3.88592 15.1104 5.44535 12.195L0.154647 9.36504C-1.96592 13.3296 -2.96 17.9586 -2.96 23.14H3.04ZM5.43946 12.2059C7.05118 9.22253 9.2551 7.01599 12.0767 5.50444L9.24334 0.215559C5.3449 2.30401 2.30882 5.37747 0.160538 9.35408L5.43946 12.2059ZM12.0767 5.50444C14.9341 3.97365 18.3325 3.16 22.36 3.16V-2.84C17.5075 -2.84 13.1059 -1.85365 9.24334 0.215559L12.0767 5.50444ZM22.36 3.16C24.5423 3.16 26.5854 3.39626 28.4978 3.85667L29.9022 -1.97667C27.4946 -2.55626 24.9777 -2.84 22.36 -2.84V3.16ZM28.4978 3.85667C30.3929 4.3129 31.8966 4.95355 33.0712 5.72625L36.3689 0.713744C34.5034 -0.513553 32.3271 -1.3929 29.9022 -1.97667L28.4978 3.85667ZM32.0443 1.8633L27.7243 10.3833L33.0757 13.0967L37.3957 4.57669L32.0443 1.8633ZM32.1301 9.28909C29.47 7.4114 26.2437 6.58 22.66 6.58V12.58C25.3163 12.58 27.25 13.1886 28.67 14.1909L32.1301 9.28909ZM22.66 6.58C19.042 6.58 15.8192 7.59485 13.281 9.86303L17.279 14.337C18.5008 13.2451 20.198 12.58 22.66 12.58V6.58ZM13.281 9.86303C10.6961 12.173 9.38085 15.3806 9.05171 19.0952L15.0283 19.6248C15.2592 17.0194 16.1039 15.387 17.279 14.337L13.281 9.86303ZM14.0048 21.6271C15.7399 20.1233 18.1462 19.24 21.52 19.24V13.24C17.0538 13.24 13.1401 14.4367 10.0752 17.0929L14.0048 21.6271ZM18.76 38.38C21.0445 38.38 23.1797 37.7091 24.8748 36.1444L20.8052 31.7356C20.4203 32.0909 19.8355 32.38 18.76 32.38V38.38ZM24.8331 36.1822C26.6436 34.5729 27.46 32.4086 27.46 30.04H21.46C21.46 30.9514 21.1964 31.3871 20.8469 31.6978L24.8331 36.1822ZM27.46 30.04C27.46 27.6858 26.6266 25.552 24.8331 23.9578L20.8469 28.4422C21.2135 28.768 21.46 29.1941 21.46 30.04H27.46ZM24.8748 23.9956C23.1667 22.4188 21.0032 21.76 18.7 21.76V27.76C19.8368 27.76 20.4333 28.0612 20.8052 28.4044L24.8748 23.9956ZM18.7 21.76C16.3601 21.76 14.1886 22.4598 12.4618 24.0587L16.5382 28.4613C16.9714 28.0602 17.5999 27.76 18.7 27.76V21.76ZM12.5069 24.0178C10.7135 25.612 9.88 27.7458 9.88 30.1H15.88C15.88 29.2542 16.1266 28.828 16.4931 28.5022L12.5069 24.0178ZM9.88 30.1C9.88 32.4024 10.6814 34.4878 12.3607 36.1025L16.5193 31.7775C16.1186 31.3922 15.88 30.9176 15.88 30.1H9.88ZM12.4469 36.1822C14.2017 37.7421 16.4128 38.38 18.76 38.38V32.38C17.5072 32.38 16.8383 32.0579 16.4331 31.6978L12.4469 36.1822Z" fill="#B798E0"/>
</svg>
