<svg width="36" height="42" viewBox="0 0 36 42" fill="none" xmlns="http://www.w3.org/2000/svg">
<path d="M35.18 -2.86102e-06H38.18V-3H35.18V-2.86102e-06ZM35.18 7.44L37.9372 8.62233L38.18 8.0561V7.44H35.18ZM20.36 42V45H22.3377L23.1172 43.1823L20.36 42ZM7.4 42L4.64863 40.8042L2.82504 45H7.4V42ZM21.56 9.42L24.3114 10.6158L26.135 6.42H21.56V9.42ZM10.52 9.42V6.42H7.52V9.42H10.52ZM10.52 15.9V18.9H13.52V15.9H10.52ZM0.38 15.9H-2.62V18.9H0.38V15.9ZM0.38 -2.86102e-06V-3H-2.62V-2.86102e-06H0.38ZM32.18 -2.86102e-06V7.44H38.18V-2.86102e-06H32.18ZM32.4228 6.25766L17.6028 40.8177L23.1172 43.1823L37.9372 8.62233L32.4228 6.25766ZM20.36 39H7.4V45H20.36V39ZM10.1514 43.1958L24.3114 10.6158L18.8086 8.22419L4.64863 40.8042L10.1514 43.1958ZM21.56 6.42H10.52V12.42H21.56V6.42ZM7.52 9.42V15.9H13.52V9.42H7.52ZM10.52 12.9H0.38V18.9H10.52V12.9ZM3.38 15.9V-2.86102e-06H-2.62V15.9H3.38ZM0.38 3H35.18V-3H0.38V3Z" fill="#B798E0"/>
</svg>
