<svg width="64" height="64" viewBox="0 0 64 64" fill="none" xmlns="http://www.w3.org/2000/svg">
<path d="M31 2C15.0078 2 2 15.0078 2 31C2 46.9922 15.0078 60 31 60C46.9922 60 60 46.9922 60 31C60 15.0078 46.9922 2 31 2ZM31 4C45.8867 4 58 16.1133 58 31C58 45.8867 45.8867 58 31 58C16.1133 58 4 45.8867 4 31C4 16.1133 16.1133 4 31 4ZM31 8C18.3164 8 8 18.3164 8 31C8 43.6836 18.3164 54 31 54C43.6836 54 54 43.6836 54 31C54 23.8945 50.793 17.3008 45.1992 12.9062C44.7656 12.5664 44.1406 12.6406 43.7969 13.0742C43.457 13.5078 43.5312 14.1367 43.9648 14.4805C49.0703 18.4922 52 24.5156 52 31C52 42.5781 42.5781 52 31 52C19.4219 52 10 42.5781 10 31C10 19.4219 19.4219 10 31 10C32.0273 10 33.0586 10.0742 34.0625 10.2227C34.6133 10.3047 35.1211 9.92578 35.1992 9.37891C35.2773 8.83203 34.9023 8.32422 34.3555 8.24219C33.2539 8.08203 32.125 8 31 8ZM38.5312 9.34375C38.1445 9.36328 37.7852 9.60938 37.6406 10C37.4531 10.5156 37.7188 11.0898 38.2383 11.2812C39.0195 11.5664 39.7969 11.9102 40.5469 12.293C40.6953 12.3672 40.8516 12.4023 41.0039 12.4023C41.3672 12.4023 41.7188 12.2031 41.8945 11.8555C42.1445 11.3633 41.9492 10.7617 41.457 10.5117C40.6367 10.0898 39.7852 9.71875 38.9258 9.40234C38.7969 9.35547 38.6641 9.33594 38.5312 9.34375ZM31 14C30.4492 14 30 14.4492 30 15V17C30 17.5508 30.4492 18 31 18C31.5508 18 32 17.5508 32 17V15C32 14.4492 31.5508 14 31 14ZM36.9805 15.168C36.5898 15.1719 36.2227 15.4062 36.0664 15.793L35.3164 17.6445C35.1094 18.1562 35.3555 18.7422 35.8711 18.9492C35.9922 18.9961 36.1211 19.0195 36.2461 19.0195C36.6406 19.0195 37.0156 18.7852 37.1719 18.3945L37.9219 16.5391C38.1289 16.0273 37.8789 15.4453 37.3672 15.2383C37.2383 15.1875 37.1094 15.1641 36.9805 15.168ZM42.0977 18.4883C41.8398 18.4961 41.5898 18.5977 41.3945 18.7969L40.0039 20.2344C39.6211 20.6328 39.6328 21.2656 40.0312 21.6484C40.2227 21.8359 40.4727 21.9297 40.7227 21.9297C40.9883 21.9297 41.2461 21.8242 41.4414 21.625L42.832 20.1875C43.2188 19.7891 43.207 19.1562 42.8125 18.7695C42.6133 18.5781 42.3555 18.4844 42.0977 18.4883ZM31 20C30.4492 20 30 20.4492 30 21V29.2773C29.4062 29.625 29 30.2617 29 31C29 32.1016 29.8984 33 31 33C31.1797 33 31.3477 32.9688 31.5117 32.9258L37.793 39.207C37.9883 39.4023 38.2422 39.5 38.5 39.5C38.7578 39.5 39.0117 39.4023 39.207 39.207C39.5977 38.8164 39.5977 38.1836 39.207 37.793L32.9258 31.5117C32.9688 31.3477 33 31.1797 33 31C33 30.2617 32.5938 29.625 32 29.2773V21C32 20.4492 31.5508 20 31 20ZM45.5977 23.4922C45.4688 23.4961 45.3359 23.5234 45.2109 23.5781L43.3828 24.3906C42.8789 24.6172 42.6523 25.207 42.875 25.7148C43.043 26.0859 43.4062 26.3086 43.7891 26.3086C43.9258 26.3086 44.0625 26.2773 44.1953 26.2188L46.0234 25.4062C46.5273 25.1797 46.7539 24.5898 46.5312 24.0859C46.3594 23.707 45.9883 23.4844 45.5977 23.4922ZM15 30C14.4492 30 14 30.4492 14 31C14 31.5508 14.4492 32 15 32H17C17.5508 32 18 31.5508 18 31C18 30.4492 17.5508 30 17 30H15ZM45 30C44.4492 30 44 30.4492 44 31C44 31.5508 44.4492 32 45 32H47C47.5508 32 48 31.5508 48 31C48 30.4492 47.5508 30 47 30H45ZM43.9648 35.2461C43.5742 35.25 43.207 35.4844 43.0508 35.8711C42.8477 36.3828 43.0938 36.9648 43.6055 37.1719L45.4609 37.9219C45.582 37.9727 45.7109 37.9961 45.832 37.9961C46.2305 37.9961 46.6055 37.7578 46.7617 37.3672C46.9688 36.8555 46.7227 36.2734 46.207 36.0664L44.3555 35.3164C44.2266 35.2656 44.0938 35.2422 43.9648 35.2461ZM41.0547 39.7227C40.8008 39.7305 40.543 39.832 40.3516 40.0312C40.1992 40.1875 40.1289 40.3867 40.0977 40.5859C39.9297 40.9531 39.9883 41.4023 40.293 41.707L41.6055 43.0195C41.8008 43.2148 42.0547 43.3125 42.3125 43.3125C42.5703 43.3125 42.8242 43.2148 43.0195 43.0195C43.0547 42.9844 43.0742 42.9336 43.1055 42.8945C43.1445 42.8633 43.1914 42.8477 43.2305 42.8086C43.6133 42.4102 43.6016 41.7773 43.2031 41.3945L41.7656 40.0039C41.5664 39.8125 41.3086 39.7188 41.0547 39.7227ZM31 44C30.4492 44 30 44.4492 30 45V47C30 47.5508 30.4492 48 31 48C31.5508 48 32 47.5508 32 47V45C32 44.4492 31.5508 44 31 44Z" fill="black"/>
</svg>
