<svg width="64" height="64" viewBox="0 0 64 64" fill="none" xmlns="http://www.w3.org/2000/svg">
<path d="M30.9961 6.01562C30.9336 6.01562 30.875 6.01953 30.8125 6.03125C30.75 6.04688 30.6875 6.0625 30.625 6.08594C30.5664 6.11328 30.5117 6.14453 30.4531 6.17969C30.4258 6.19922 30.3867 6.20703 30.3594 6.23047L18 16.4609V13.0586C18 12.5039 17.5547 12.0586 17 12.0586C16.4453 12.0586 16 12.5039 16 13.0586V18.0586C16 18.0742 16.0078 18.0898 16.0117 18.1094L14 19.7695V9.05469C14 8.50391 13.5547 8.05469 13 8.05469C12.4453 8.05469 12 8.50391 12 9.05469V21.0586C12 21.168 12.0312 21.2734 12.0625 21.375L1.35936 30.2305C0.933576 30.582 0.878888 31.2109 1.22654 31.6367C1.42576 31.875 1.71483 32 1.99998 32C2.22654 32 2.45311 31.9258 2.64061 31.7695L5.99998 28.9883V54H2.99998C2.44529 54 1.99998 54.4492 1.99998 55C1.99998 55.5508 2.44529 56 2.99998 56H59C59.5547 56 60 55.5508 60 55C60 54.4492 59.5547 54 59 54H56V28.9883L59.3594 31.7695C59.5469 31.9258 59.7734 32 60 32C60.2851 32 60.5703 31.875 60.7695 31.6406C61.1211 31.2109 61.0625 30.582 60.6367 30.2305L31.6367 6.23047C31.6094 6.20703 31.5742 6.19922 31.543 6.17969C31.4844 6.14062 31.4297 6.10937 31.3633 6.08594C31.3047 6.0625 31.25 6.04688 31.1875 6.03125C31.125 6.01953 31.0625 6.01562 30.9961 6.01562ZM31 8.29688L54 27.332V44H38V36C38 34.8984 37.1015 34 36 34H26C24.8984 34 24 34.8984 24 36V44H7.99998V27.332L31 8.29688ZM31 18C28.2422 18 26 20.2422 26 23C26 25.7578 28.2422 28 31 28C33.7578 28 36 25.7578 36 23C36 20.2422 33.7578 18 31 18ZM31 19.793C32.7695 19.793 34.207 21.2305 34.207 23C34.207 24.7695 32.7695 26.207 31 26.207C29.2305 26.207 27.793 24.7695 27.793 23C27.793 21.2305 29.2305 19.793 31 19.793ZM26 36H36V53.9492H26V36ZM33 43C32.4453 43 32 43.4492 32 44V46C32 46.5508 32.4453 47 33 47C33.5547 47 34 46.5508 34 46V44C34 43.4492 33.5547 43 33 43ZM7.99998 46H24V54H7.99998V46ZM38 46H54V54H38V46ZM11 48C10.4453 48 9.99998 48.4492 9.99998 49V51C9.99998 51.5508 10.4453 52 11 52C11.5547 52 12 51.5508 12 51V49C12 48.4492 11.5547 48 11 48ZM16 48C15.4453 48 15 48.4492 15 49V51C15 51.5508 15.4453 52 16 52C16.5547 52 17 51.5508 17 51V49C17 48.4492 16.5547 48 16 48ZM21 48C20.4453 48 20 48.4492 20 49V51C20 51.5508 20.4453 52 21 52C21.5547 52 22 51.5508 22 51V49C22 48.4492 21.5547 48 21 48ZM41 48C40.4453 48 40 48.4492 40 49V51C40 51.5508 40.4453 52 41 52C41.5547 52 42 51.5508 42 51V49C42 48.4492 41.5547 48 41 48ZM46 48C45.4453 48 45 48.4492 45 49V51C45 51.5508 45.4453 52 46 52C46.5547 52 47 51.5508 47 51V49C47 48.4492 46.5547 48 46 48ZM51 48C50.4453 48 50 48.4492 50 49V51C50 51.5508 50.4453 52 51 52C51.5547 52 52 51.5508 52 51V49C52 48.4492 51.5547 48 51 48Z" fill="black"/>
</svg>
