<svg width="64" height="64" viewBox="0 0 64 64" fill="none" xmlns="http://www.w3.org/2000/svg">
<path d="M30.8242 0C22.8008 0 15.9766 5.46875 14.2305 13.2969L11.7812 24.2695C11.2734 26.5312 10.375 28.6562 9.10156 30.5898L7.4375 33.1094C6.94531 33.8594 6.8125 34.7812 7.07422 35.6367C7.33984 36.4961 7.96875 37.1914 8.80469 37.5352C10.0977 38.0742 11.5586 38.5703 13.1484 39.0352L8.25781 41.3789C4.45703 43.1953 2 47.0898 2 51.3008V59C2 60.6523 3.34766 62 5 62H59C60.6523 62 62 60.6523 62 59V51.3008C62 47.0898 59.5469 43.1953 55.7461 41.3789L50.8086 39.0156C52.4258 38.5508 53.9062 38.0586 55.1992 37.5312C56.0273 37.1875 56.6562 36.5039 56.9258 35.6445C57.1914 34.7852 57.0625 33.8594 56.5703 33.1094L54.7109 30.2617C53.4766 28.375 52.5977 26.3047 52.0938 24.1094L49.8242 14.2031C48.1367 6.84766 41.75 1.47266 34.2305 1.04297C33.207 0.359375 32.0352 0 30.8242 0ZM30.8242 2C31.707 2 32.5625 2.28516 33.2969 2.82812C33.457 2.94922 33.6523 3.01953 33.8516 3.02344C40.5977 3.29297 46.3672 8.07422 47.875 14.6484L50.1445 24.5547C50.7031 26.9844 51.6758 29.2695 53.0352 31.3555L54.8945 34.1992C55.0625 34.4531 55.1055 34.7617 55.0156 35.0508C54.9648 35.2188 54.8203 35.5234 54.4375 35.6758C52.6523 36.4102 50.4922 37.082 48.0312 37.6875L42.4844 35.0352C43.5508 33.3789 44.418 31.5625 45.0156 29.7344C46.2422 29.2734 47.3633 27.7734 47.8984 25.7773C48.2148 24.5977 48.2773 23.4102 48.0781 22.4336C47.8281 21.2148 47.1953 20.4102 46.2969 20.1719C46.1719 20.1367 46.0234 20.1094 45.8555 20.1055C45.7461 19.3047 45.5703 18.5156 45.3281 17.75C45.1562 17.2227 44.5977 16.9297 44.0703 17.0977C43.543 17.2656 43.2539 17.8281 43.4219 18.3555C43.7344 19.3477 43.9219 20.3828 43.9688 21.4336C43.9883 21.7891 44.1953 22.1133 44.5117 22.2773C44.832 22.4375 45.2109 22.4219 45.5117 22.2227C45.6914 22.1094 45.7812 22.1055 45.7773 22.1055C45.832 22.1211 46.0117 22.3242 46.1172 22.832C46.2539 23.5039 46.1992 24.3867 45.9688 25.2617C45.4727 27.1016 44.5273 27.8789 44.2344 27.8789C43.793 27.8789 43.4023 28.1719 43.2773 28.5938C41.5898 34.2617 37.1797 40 32 40C26.8203 40 22.4102 34.2617 20.7227 28.5938C20.5977 28.1719 20.2109 27.8789 19.7656 27.8789C19.4727 27.8789 18.5273 27.1016 18.0352 25.2617C17.8008 24.3867 17.7461 23.5039 17.8828 22.832C17.9883 22.3242 18.1719 22.1172 18.2188 22.1055C18.2188 22.1055 18.3047 22.1055 18.4883 22.2227C18.7891 22.418 19.168 22.4375 19.4883 22.2773C19.8047 22.1133 20.0156 21.793 20.0312 21.4336C20.0781 20.3906 20.2617 19.3594 20.5781 18.3711C20.7422 17.8438 20.4492 17.2773 19.9219 17.1133C19.3984 16.9414 18.8359 17.2383 18.6719 17.7656C18.4297 18.5312 18.25 19.3125 18.1445 20.1055C17.9766 20.1133 17.832 20.1367 17.707 20.1719C16.8047 20.4102 16.1719 21.2148 15.9219 22.4336C15.7227 23.4102 15.7891 24.5977 16.1055 25.7773C16.6367 27.7734 17.7617 29.2734 18.9844 29.7344C19.5859 31.5625 20.4492 33.3789 21.5195 35.0352L15.9102 37.7188C13.5039 37.1172 11.3672 36.4375 9.57031 35.6875C9.28906 35.5742 9.07422 35.3398 8.98438 35.0508C8.93359 34.8828 8.88281 34.5508 9.10938 34.207L10.7695 31.6875C12.1758 29.5469 13.1758 27.1992 13.7344 24.7031L16.1836 13.7305C17.7227 6.82422 23.7461 2 30.8242 2ZM26.1719 12.125C25.582 12.1797 25.0234 12.4961 24.6836 13.0156L23.0781 15.4492C22.7734 15.9102 22.9023 16.5312 23.3633 16.8359C23.5312 16.9453 23.7227 17 23.9102 17C24.2383 17 24.5547 16.8438 24.75 16.5508L26.3516 14.1172L27.9141 14.8789C30.7617 16.2695 33.9414 17 37.1133 17H39.668C40.2188 17 40.668 16.5547 40.668 16C40.668 15.4453 40.2188 15 39.668 15H37.1133C34.2461 15 31.3672 14.3359 28.793 13.0781L27.2266 12.3164C26.8867 12.1523 26.5234 12.0938 26.1719 12.125ZM41.2969 36.6875L54.8828 43.1836C57.9922 44.6719 60 47.8555 60 51.3008V59C60 59.5508 59.5508 60 59 60H5C4.44922 60 4 59.5508 4 59V51.3008C4 47.8594 6.00781 44.668 9.11719 43.1836L22.7031 36.6875C25.1602 39.7891 28.4023 42 32 42C35.5977 42 38.8398 39.7891 41.2969 36.6875ZM22.1406 42.0117C21.7539 41.9531 21.3555 42.1289 21.1406 42.4844C20.8594 42.9609 21.0117 43.5742 21.4844 43.8594L31.4844 49.8594C31.6445 49.9531 31.8203 50 32 50C32.1797 50 32.3555 49.9531 32.5156 49.8594L42.5156 43.8594C42.9883 43.5742 43.1406 42.957 42.8594 42.4844C42.5742 42.0117 41.9609 41.8594 41.4844 42.1406L32 47.832L22.5156 42.1406C22.3984 42.0703 22.2695 42.0273 22.1406 42.0117ZM32 52C31.4492 52 31 52.4453 31 53V57C31 57.5547 31.4492 58 32 58C32.5508 58 33 57.5547 33 57V53C33 52.4453 32.5508 52 32 52ZM7 54C6.44922 54 6 54.4453 6 55V57C6 57.5547 6.44922 58 7 58C7.55078 58 8 57.5547 8 57V55C8 54.4453 7.55078 54 7 54ZM12 54C11.4492 54 11 54.4453 11 55V57C11 57.5547 11.4492 58 12 58C12.5508 58 13 57.5547 13 57V55C13 54.4453 12.5508 54 12 54ZM17 54C16.4492 54 16 54.4453 16 55V57C16 57.5547 16.4492 58 17 58C17.5508 58 18 57.5547 18 57V55C18 54.4453 17.5508 54 17 54ZM22 54C21.4492 54 21 54.4453 21 55V57C21 57.5547 21.4492 58 22 58C22.5508 58 23 57.5547 23 57V55C23 54.4453 22.5508 54 22 54ZM27 54C26.4492 54 26 54.4453 26 55V57C26 57.5547 26.4492 58 27 58C27.5508 58 28 57.5547 28 57V55C28 54.4453 27.5508 54 27 54ZM37 54C36.4492 54 36 54.4453 36 55V57C36 57.5547 36.4492 58 37 58C37.5508 58 38 57.5547 38 57V55C38 54.4453 37.5508 54 37 54ZM42 54C41.4492 54 41 54.4453 41 55V57C41 57.5547 41.4492 58 42 58C42.5508 58 43 57.5547 43 57V55C43 54.4453 42.5508 54 42 54ZM47 54C46.4492 54 46 54.4453 46 55V57C46 57.5547 46.4492 58 47 58C47.5508 58 48 57.5547 48 57V55C48 54.4453 47.5508 54 47 54ZM52 54C51.4492 54 51 54.4453 51 55V57C51 57.5547 51.4492 58 52 58C52.5508 58 53 57.5547 53 57V55C53 54.4453 52.5508 54 52 54ZM57 54C56.4492 54 56 54.4453 56 55V57C56 57.5547 56.4492 58 57 58C57.5508 58 58 57.5547 58 57V55C58 54.4453 57.5508 54 57 54Z" fill="black"/>
</svg>
