<svg width="64" height="64" viewBox="0 0 64 64" fill="none" xmlns="http://www.w3.org/2000/svg">
<path d="M21.6562 4C20.3203 4 19.0664 4.51953 18.1211 5.46484L9.46484 14.1211C8.51953 15.0664 8 16.3203 8 17.6562V57C8 58.6523 9.34766 60 11 60H51C52.6523 60 54 58.6523 54 57V7C54 5.34766 52.6523 4 51 4H21.6562ZM22 6H51C51.5508 6 52 6.44922 52 7V57C52 57.5508 51.5508 58 51 58H11C10.4492 58 10 57.5508 10 57V18H19C20.6523 18 22 16.6523 22 15V6ZM20 6.5V15C20 15.5508 19.5508 16 19 16H10.5C10.6055 15.8359 10.7344 15.6797 10.8789 15.5352L19.5352 6.87891C19.6797 6.73828 19.8359 6.61328 20 6.5ZM20 24C17.793 24 16 25.793 16 28C16 30.207 17.793 32 20 32C22.207 32 24 30.207 24 28C24 25.793 22.207 24 20 24ZM20 25.75C21.2422 25.75 22.25 26.7578 22.25 28C22.25 29.2422 21.2422 30.25 20 30.25C18.7578 30.25 17.75 29.2422 17.75 28C17.75 26.7578 18.7578 25.75 20 25.75ZM37 30.4141C36.4883 30.4141 35.9766 30.6094 35.5859 31L29 37.5859L26.4141 35C25.6328 34.2188 24.3633 34.2188 23.5859 35L14.5859 44H13.043C12.418 44 12 44.3984 12 45C12 45.6016 12.5234 46 13.043 46H48.9805C49.5 46 50.0234 45.6016 50.0234 45C50.0234 44.3984 49.5 44 48.9805 44H25.4141L37 32.4141L45.293 40.707C45.6836 41.0977 46.3164 41.0977 46.707 40.707C47.0977 40.3164 47.0977 39.6836 46.707 39.293L38.4141 31C38.0234 30.6094 37.5117 30.4141 37 30.4141ZM25 36.4141L27.5859 39L22.5859 44H17.4141L25 36.4141ZM13 52C12.4492 52 12 52.4492 12 53V55C12 55.5508 12.4492 56 13 56C13.5508 56 14 55.5508 14 55V53C14 52.4492 13.5508 52 13 52ZM18 52C17.4492 52 17 52.4492 17 53V55C17 55.5508 17.4492 56 18 56C18.5508 56 19 55.5508 19 55V53C19 52.4492 18.5508 52 18 52ZM23 52C22.4492 52 22 52.4492 22 53V55C22 55.5508 22.4492 56 23 56C23.5508 56 24 55.5508 24 55V53C24 52.4492 23.5508 52 23 52ZM28 52C27.4492 52 27 52.4492 27 53V55C27 55.5508 27.4492 56 28 56C28.5508 56 29 55.5508 29 55V53C29 52.4492 28.5508 52 28 52ZM33 52C32.4492 52 32 52.4492 32 53V55C32 55.5508 32.4492 56 33 56C33.5508 56 34 55.5508 34 55V53C34 52.4492 33.5508 52 33 52ZM38 52C37.4492 52 37 52.4492 37 53V55C37 55.5508 37.4492 56 38 56C38.5508 56 39 55.5508 39 55V53C39 52.4492 38.5508 52 38 52ZM43 52C42.4492 52 42 52.4492 42 53V55C42 55.5508 42.4492 56 43 56C43.5508 56 44 55.5508 44 55V53C44 52.4492 43.5508 52 43 52ZM48 52C47.4492 52 47 52.4492 47 53V55C47 55.5508 47.4492 56 48 56C48.5508 56 49 55.5508 49 55V53C49 52.4492 48.5508 52 48 52Z" fill="black"/>
</svg>
