<svg width="64" height="64" viewBox="0 0 64 64" fill="none" xmlns="http://www.w3.org/2000/svg">
<path d="M14.168 4C13.6133 4 13.168 4.44531 13.168 5V7.07031C13.168 7.625 13.6133 8.07031 14.168 8.07031C14.7188 8.07031 15.168 7.625 15.168 7.07031V5C15.168 4.44531 14.7188 4 14.168 4ZM7.30469 6.42969C7.04688 6.42969 6.79297 6.52734 6.59375 6.72266C6.20312 7.11328 6.20312 7.74609 6.59375 8.13672L8.0625 9.60156C8.25781 9.79688 8.51172 9.89453 8.76953 9.89453C9.02734 9.89453 9.28125 9.79688 9.47656 9.60156C9.86719 9.21094 9.86719 8.57812 9.47656 8.1875L8.00781 6.72266C7.8125 6.52734 7.55859 6.42969 7.30469 6.42969ZM21.0312 6.42969C20.7734 6.42969 20.5195 6.52734 20.3242 6.72266L18.8555 8.1875C18.4648 8.57812 18.4648 9.21094 18.8555 9.60156C19.0508 9.79688 19.3086 9.89453 19.5625 9.89453C19.8203 9.89453 20.0742 9.79688 20.2695 9.60156L21.7344 8.13672C22.1289 7.74609 22.1289 7.11328 21.7344 6.72266C21.5391 6.52734 21.2852 6.42969 21.0312 6.42969ZM13.9766 11.832C13.3984 11.7813 12.8281 11.9883 12.3984 12.418C11.8242 12.9922 11.6523 13.8125 11.9531 14.5664L28.0234 55.0664C28.3086 55.7852 28.9609 56.2656 29.7305 56.3242C30.4883 56.3789 31.2148 56.0117 31.6055 55.3477L38.3398 43.957L51.6797 57.3008C52.2461 57.8672 53 58.1836 53.8008 58.1836C54.6055 58.1836 55.3594 57.8711 55.9219 57.3008L57.3398 55.8906C58.5078 54.7188 58.5078 52.8125 57.3398 51.6445L44 38.3086L55.3242 31.625C55.9883 31.2305 56.3633 30.5156 56.3047 29.7461C56.2461 28.9766 55.7617 28.3281 55.0469 28.043L14.5508 11.9727C14.3633 11.8984 14.168 11.8516 13.9766 11.832ZM4.875 13.293C4.32031 13.293 3.875 13.7383 3.875 14.293C3.875 14.8477 4.32031 15.293 4.875 15.293H6.94531C7.5 15.293 7.94531 14.8477 7.94531 14.293C7.94531 13.7383 7.5 13.293 6.94531 13.293H4.875ZM13.8125 13.8281L54.3086 29.9023L42.9844 36.582C42.4453 36.8984 42.0938 37.4375 42.0156 38.0547C41.9375 38.6719 42.1445 39.2812 42.5859 39.7188L55.9219 53.0586C56.3125 53.4492 56.3125 54.0859 55.9219 54.4727L54.5078 55.8906C54.1289 56.2695 53.4727 56.2695 53.0938 55.8906L39.75 42.5469C39.3711 42.1641 38.8711 41.957 38.3438 41.957C38.2578 41.957 38.1719 41.9648 38.0898 41.9727C37.4688 42.0508 36.9336 42.4062 36.6133 42.9414L29.8828 54.3281L13.8125 13.8281ZM8.76953 18.6875C8.51172 18.6914 8.25781 18.7891 8.0625 18.9844L6.59375 20.4492C6.20312 20.8398 6.20312 21.4688 6.59375 21.8594C6.78906 22.0547 7.04688 22.1562 7.30469 22.1562C7.55859 22.1562 7.81641 22.0547 8.00781 21.8594L9.47656 20.3945C9.86719 20.0039 9.86719 19.375 9.47656 18.9844C9.28125 18.7852 9.02734 18.6875 8.76953 18.6875ZM22.0312 19.4219C21.6406 19.4297 21.2734 19.668 21.125 20.0508C20.918 20.5664 21.1719 21.1484 21.6875 21.3516L24.832 22.6016C24.9531 22.6484 25.0781 22.6719 25.2031 22.6719C25.5977 22.6719 25.9766 22.4297 26.1289 22.0391C26.332 21.5234 26.082 20.9453 25.5703 20.7383L22.4219 19.4922C22.293 19.4414 22.1602 19.418 22.0312 19.4219ZM29.2383 22.2812C28.8477 22.293 28.4844 22.5312 28.332 22.9141C28.1289 23.4297 28.3789 24.0078 28.8945 24.2148L43.5898 30.0469C43.7109 30.0938 43.8359 30.1133 43.957 30.1133C44.3555 30.1133 44.7344 29.875 44.8906 29.4844C45.0938 28.9688 44.8398 28.3867 44.3281 28.1836L29.6289 22.3555C29.5 22.3008 29.3672 22.2812 29.2383 22.2812Z" fill="black"/>
</svg>
