<svg width="64" height="64" viewBox="0 0 64 64" fill="none" xmlns="http://www.w3.org/2000/svg">
<path d="M16 2C10.8906 2 6.91797 3.73047 6.14844 6.14062C4.91016 6.50781 4 7.64453 4 9V15.1758C4 19.125 4.74219 22.9883 6.20312 26.6562L11.5664 40.1094C11.9805 41.1445 12.9141 41.8438 14 41.9727V49C14 50.6523 15.3477 52 17 52H18V56.1836C16.8398 56.5977 16 57.6992 16 59C16 60.6523 17.3477 62 19 62H27C28.6523 62 30 60.6523 30 59C30 57.6992 29.1602 56.5977 28 56.1836V52H36V56.1836C34.8398 56.5977 34 57.6992 34 59C34 60.6523 35.3477 62 37 62H45C46.6523 62 48 60.6523 48 59C48 57.6992 47.1602 56.5977 46 56.1836V52H47C48.6523 52 50 50.6523 50 49V41.9727C51.0859 41.8438 52.0195 41.1484 52.4336 40.1094L57.7969 26.6562C59.2578 22.9922 60 19.125 60 15.1758V9C60 7.64453 59.0898 6.50781 57.8555 6.14062C57.082 3.73047 53.1094 2 48 2C42.8906 2 38.918 3.73047 38.1445 6.14062C36.9102 6.50781 36 7.64453 36 9V24H33V22C33.5547 22 34 21.5508 34 21C34 20.4492 33.5547 20 33 20H31C30.4453 20 30 20.4492 30 21C30 21.5508 30.4453 22 31 22V24H28V9C28 7.64453 27.0898 6.50781 25.8555 6.14062C25.082 3.73047 21.1094 2 16 2ZM16 4C19.6445 4 22.3047 4.98828 23.418 6H8.58203C9.69531 4.98828 12.3555 4 16 4ZM48 4C51.6445 4 54.3047 4.98828 55.418 6H40.582C41.6953 4.98828 44.3555 4 48 4ZM7 8H25C25.5508 8 26 8.44922 26 9V10H6V9C6 8.44922 6.44922 8 7 8ZM39 8H57C57.5508 8 58 8.44922 58 9V10H38V9C38 8.44922 38.4492 8 39 8ZM6 12H26V40H14.3555C13.9453 40 13.5781 39.7539 13.4258 39.3711L8.0625 25.918C6.69531 22.4883 6 18.8711 6 15.1758V12ZM38 12H58V15.1758C58 18.8711 57.3047 22.4883 55.9375 25.918L50.5742 39.3711C50.4219 39.7539 50.0547 40 49.6445 40H38V12ZM28 26H36V40H28V26ZM16 42H48V49C48 49.5508 47.5508 50 47 50H17C16.4492 50 16 49.5508 16 49V42ZM19 44C18.4453 44 18 44.4492 18 45V47C18 47.5508 18.4453 48 19 48C19.5547 48 20 47.5508 20 47V45C20 44.4492 19.5547 44 19 44ZM24 44C23.4453 44 23 44.4492 23 45V47C23 47.5508 23.4453 48 24 48C24.5547 48 25 47.5508 25 47V45C25 44.4492 24.5547 44 24 44ZM29 44C28.4453 44 28 44.4492 28 45V47C28 47.5508 28.4453 48 29 48C29.5547 48 30 47.5508 30 47V45C30 44.4492 29.5547 44 29 44ZM35 44C34.4453 44 34 44.4492 34 45V47C34 47.5508 34.4453 48 35 48C35.5547 48 36 47.5508 36 47V45C36 44.4492 35.5547 44 35 44ZM40 44C39.4453 44 39 44.4492 39 45V47C39 47.5508 39.4453 48 40 48C40.5547 48 41 47.5508 41 47V45C41 44.4492 40.5547 44 40 44ZM45 44C44.4453 44 44 44.4492 44 45V47C44 47.5508 44.4453 48 45 48C45.5547 48 46 47.5508 46 47V45C46 44.4492 45.5547 44 45 44ZM20 52H26V56H20V52ZM38 52H44V56H38V52ZM19 58H27C27.5508 58 28 58.4492 28 59C28 59.5508 27.5508 60 27 60H19C18.4492 60 18 59.5508 18 59C18 58.4492 18.4492 58 19 58ZM37 58H45C45.5508 58 46 58.4492 46 59C46 59.5508 45.5508 60 45 60H37C36.4492 60 36 59.5508 36 59C36 58.4492 36.4492 58 37 58Z" fill="black"/>
</svg>
