<svg width="64" height="64" viewBox="0 0 64 64" fill="none" xmlns="http://www.w3.org/2000/svg">
<path d="M31 0C20.5234 0 12 8.52344 12 19V26H9C7.34766 26 6 27.3477 6 29V59C6 60.6523 7.34766 62 9 62H55C56.6523 62 58 60.6523 58 59V29C58 27.3477 56.6523 26 55 26H20V19C20 12.9336 24.9336 8 31 8H33C39.0664 8 44 12.9336 44 19C44 20.6523 45.3477 22 47 22H49C50.6523 22 52 20.6523 52 19C52 8.52344 43.4766 0 33 0H31ZM31 2H33C33.3398 2 33.668 2.03125 34 2.05078V6.05078C33.668 6.02344 33.3398 6 33 6H31C30.6602 6 30.332 6.02344 30 6.05078V2.05078C30.332 2.03125 30.6602 2 31 2ZM28 2.28125V6.36328C22.2773 7.72266 18 12.8672 18 19V26H14V19C14 10.6523 20.0547 3.70312 28 2.28125ZM36 2.28125C43.9453 3.70312 50 10.6523 50 19C50 19.5508 49.5508 20 49 20H47C46.4492 20 46 19.5508 46 19C46 12.8672 41.7227 7.72266 36 6.36328V2.28125ZM9 28H55C55.5508 28 56 28.4492 56 29V59C56 59.5508 55.5508 60 55 60H9C8.44922 60 8 59.5508 8 59V29C8 28.4492 8.44922 28 9 28ZM32 32C26.4844 32 22 36.4844 22 42C22 47.5156 26.4844 52 32 52C37.5156 52 42 47.5156 42 42C42 36.4844 37.5156 32 32 32ZM32 34C36.4102 34 40 37.5898 40 42C40 46.4102 36.4102 50 32 50C27.5898 50 24 46.4102 24 42C24 37.5898 27.5898 34 32 34ZM32 35C31.4453 35 31 35.4492 31 36V37.832C31 38.3867 31.4453 38.832 32 38.832C32.5547 38.832 33 38.3828 33 37.832V36C33 35.4492 32.5547 35 32 35ZM27.8164 36.7344C27.5625 36.7344 27.3047 36.8281 27.1094 37.0273C26.7188 37.4141 26.7188 38.0469 27.1094 38.4375L28.4062 39.7344C28.5977 39.9297 28.8555 40.0312 29.1094 40.0312C29.3672 40.0312 29.625 39.9297 29.8164 39.7344C30.2109 39.3477 30.2109 38.7148 29.8164 38.3242L28.5234 37.0273C28.3281 36.8281 28.0703 36.7344 27.8164 36.7344ZM36.3008 36.7344C36.0469 36.7344 35.793 36.8281 35.5938 37.0273L34.2969 38.3242C33.9062 38.7109 33.9062 39.3438 34.2969 39.7344C34.4922 39.9336 34.75 40.0312 35.0039 40.0312C35.2617 40.0312 35.5195 39.9297 35.7148 39.7344L37.0117 38.4375C37.4023 38.0508 37.4023 37.418 37.0117 37.0273C36.8125 36.8281 36.5586 36.7344 36.3008 36.7344ZM26 41C25.4453 41 25 41.4492 25 42C25 42.5508 25.4453 43 26 43H27.832C28.3867 43 28.832 42.5508 28.832 42C28.832 41.4492 28.3867 41 27.832 41H26ZM36.168 41C35.6133 41 35.168 41.4492 35.168 42C35.168 42.5508 35.6133 43 36.168 43H38C38.5547 43 39 42.5508 39 42C39 41.4492 38.5547 41 38 41H36.168ZM34.8906 43.8047C34.6328 43.8047 34.3789 43.9023 34.1836 44.0977C33.7891 44.4883 33.7891 45.1211 34.1836 45.5117L35.4766 46.8086C35.6719 47.0039 35.9258 47.1016 36.1836 47.1016C36.4414 47.1016 36.6953 47.0039 36.8906 46.8086C37.2812 46.418 37.2812 45.7852 36.8906 45.3945L35.5938 44.0977C35.3984 43.9023 35.1445 43.8047 34.8906 43.8047ZM29.1133 43.9219C28.8555 43.9219 28.6016 44.0195 28.4062 44.2148L27.1094 45.5117C26.7188 45.9023 26.7188 46.5352 27.1094 46.9258C27.3047 47.1211 27.5586 47.2188 27.8164 47.2188C28.0742 47.2188 28.3281 47.1211 28.5234 46.9258L29.8164 45.6289C30.2109 45.2383 30.2109 44.6055 29.8164 44.2148C29.625 44.0195 29.3711 43.9219 29.1133 43.9219ZM32 45C31.4453 45 31 45.4492 31 46V47.832C31 48.3867 31.4453 48.832 32 48.832C32.5547 48.832 33 48.3828 33 47.832V46C33 45.4492 32.5547 45 32 45ZM11 56C10.4453 56 10 56.4492 10 57C10 57.5508 10.4453 58 11 58H45C45.5547 58 46 57.5508 46 57C46 56.4492 45.5547 56 45 56H11ZM49 56C48.4453 56 48 56.4492 48 57C48 57.5508 48.4453 58 49 58H53C53.5547 58 54 57.5508 54 57C54 56.4492 53.5547 56 53 56H49Z" fill="black"/>
</svg>
