<svg width="64" height="64" viewBox="0 0 64 64" fill="none" xmlns="http://www.w3.org/2000/svg">
<path d="M31 2C15.0117 2 2 15.0078 2 31C2 46.9922 15.0117 60 31 60C46.9883 60 60 46.9922 60 31C60 15.0078 46.9883 2 31 2ZM31 4C45.8867 4 58 16.1133 58 31C58 45.8867 45.8867 58 31 58C16.1133 58 4 45.8867 4 31C4 16.1133 16.1133 4 31 4ZM30.5625 8.00781C24.6719 8.125 18.9609 10.5117 14.7344 14.7344C5.76953 23.7031 5.76953 38.293 14.7344 47.2617C14.9297 47.457 15.1875 47.5547 15.4414 47.5547C15.6992 47.5547 15.957 47.457 16.1523 47.2617C16.543 46.8711 16.543 46.2383 16.1523 45.8477C7.96094 37.6602 7.96484 24.3398 16.1523 16.1523C20.8984 11.4023 27.6992 9.20312 34.3398 10.2656C34.8828 10.3555 35.3984 9.98047 35.4844 9.4375C35.5742 8.89062 35.1992 8.375 34.6562 8.28906C33.293 8.07031 31.9258 7.97656 30.5625 8.00781ZM38.6562 9.38672C38.2695 9.40234 37.9102 9.64844 37.7656 10.0352C37.5703 10.5547 37.832 11.1289 38.3516 11.3242C39.0664 11.5898 39.7695 11.8984 40.4531 12.2383C40.5977 12.3125 40.75 12.3477 40.9023 12.3477C41.2656 12.3477 41.6172 12.1484 41.7969 11.7969C42.043 11.3047 41.8438 10.7031 41.3516 10.4531C40.6094 10.0781 39.832 9.74219 39.0508 9.44922C38.9219 9.40234 38.7891 9.38281 38.6562 9.38672ZM44.4336 12.6758C44.1797 12.707 43.9375 12.832 43.7656 13.0508C43.4258 13.4844 43.5 14.1133 43.9375 14.4531C44.6055 14.9766 45.2461 15.5469 45.8477 16.1523C54.0391 24.3398 54.0391 37.6602 45.8477 45.8477C45.457 46.2422 45.457 46.8711 45.8477 47.2656C46.043 47.457 46.3008 47.5586 46.5586 47.5586C46.8125 47.5586 47.0703 47.457 47.2656 47.2656C56.2305 38.2969 56.2305 23.7031 47.2656 14.7344C46.6055 14.0781 45.9023 13.4531 45.1719 12.8789C44.9531 12.7109 44.6836 12.6445 44.4336 12.6758ZM22.5156 21.5156C22.2617 21.5156 22.0039 21.6133 21.8086 21.8086C21.418 22.1992 21.418 22.832 21.8086 23.2227L29.5859 31L21.8086 38.7773C21.418 39.168 21.418 39.8008 21.8086 40.1914C22.0039 40.3867 22.2578 40.4844 22.5156 40.4844C22.7734 40.4844 23.0273 40.3867 23.2227 40.1914L31 32.4141L38.7773 40.1914C38.9727 40.3867 39.2266 40.4844 39.4844 40.4844C39.7422 40.4844 39.9961 40.3867 40.1914 40.1914C40.582 39.8008 40.582 39.168 40.1914 38.7773L32.4141 31L40.1914 23.2227C40.582 22.832 40.582 22.1992 40.1914 21.8086C39.8008 21.418 39.168 21.418 38.7773 21.8086L31 29.5859L23.2227 21.8086C23.0273 21.6133 22.7695 21.5156 22.5156 21.5156ZM21.375 47.3945C20.9844 47.3477 20.5898 47.5273 20.3867 47.8867L19.3867 49.6211C19.1094 50.0977 19.2734 50.707 19.75 50.9844C19.9062 51.0742 20.0781 51.1211 20.25 51.1211C20.5938 51.1211 20.9297 50.9414 21.1133 50.6211L22.1133 48.8867C22.3906 48.4102 22.2305 47.7969 21.75 47.5195C21.6289 47.4531 21.5 47.4102 21.375 47.3945ZM40.625 47.3945C40.4961 47.4102 40.3672 47.4531 40.25 47.5195C39.7695 47.7969 39.6094 48.4102 39.8867 48.8906L40.8867 50.6211C41.0703 50.9414 41.4062 51.1211 41.75 51.1211C41.9219 51.1211 42.0938 51.0781 42.25 50.9844C42.7305 50.7109 42.8906 50.0977 42.6133 49.6211L41.6133 47.8906C41.4062 47.5312 41.0117 47.3477 40.625 47.3945ZM25.8164 49.3438C25.4297 49.3984 25.0938 49.6758 24.9844 50.0781L24.4688 52.0117C24.3242 52.543 24.6445 53.0898 25.1758 53.2344C25.2617 53.2578 25.3477 53.2695 25.4375 53.2695C25.875 53.2695 26.2812 52.9727 26.4023 52.5273L26.9219 50.5938C27.0625 50.0625 26.7461 49.5117 26.2148 49.3711C26.0781 49.332 25.9453 49.3242 25.8164 49.3438ZM36.1875 49.3438C36.0586 49.3242 35.9219 49.332 35.7852 49.3711C35.2539 49.5117 34.9375 50.0625 35.0781 50.5938L35.5977 52.5273C35.7188 52.9727 36.1211 53.2695 36.5625 53.2695C36.6523 53.2695 36.7383 53.2578 36.8242 53.2344C37.3555 53.0898 37.6758 52.543 37.5312 52.0117L37.0156 50.0781C36.9062 49.6758 36.5703 49.3984 36.1875 49.3438ZM31 50C30.4453 50 30 50.4492 30 51V53C30 53.5508 30.4453 54 31 54C31.5547 54 32 53.5508 32 53V51C32 50.4492 31.5547 50 31 50Z" fill="black"/>
</svg>
