<svg width="28" height="28" viewBox="0 0 28 28" fill="none" xmlns="http://www.w3.org/2000/svg">
<path d="M23.436 4.57056C20.66 1.79322 16.8733 0.39189 12.8973 0.71189C7.55198 1.14122 2.86665 4.85856 1.29865 9.98656C0.178648 13.6506 0.649315 17.4759 2.47331 20.6359L0.745315 26.3732C0.579981 26.9239 1.08265 27.4426 1.63865 27.2946L7.64398 25.6852C9.58931 26.7466 11.7786 27.3052 14.008 27.3066H14.0133C19.6066 27.3066 24.7746 23.8852 26.5626 18.5852C28.304 13.4172 27.016 8.15456 23.436 4.57056ZM20.5306 18.7386C20.2533 19.5159 18.8946 20.2652 18.284 20.3199C17.6733 20.3759 17.1013 20.5959 14.2906 19.4879C10.908 18.1546 8.77198 14.6866 8.60665 14.4652C8.43998 14.2426 7.24798 12.6612 7.24798 11.0239C7.24798 9.38656 8.10798 8.58122 8.41331 8.24922C8.71865 7.91589 9.07865 7.83322 9.30131 7.83322C9.52265 7.83322 9.74531 7.83322 9.93865 7.84122C10.176 7.85056 10.4386 7.86256 10.688 8.41589C10.984 9.07456 11.6306 10.7199 11.7133 10.8866C11.796 11.0532 11.852 11.2479 11.7413 11.4692C11.6306 11.6906 11.5746 11.8292 11.4093 12.0239C11.2426 12.2186 11.06 12.4572 10.9106 12.6066C10.744 12.7719 10.5706 12.9532 10.764 13.2852C10.9586 13.6186 11.6253 14.7079 12.6146 15.5892C13.8866 16.7226 14.9573 17.0732 15.2906 17.2412C15.624 17.4079 15.8173 17.3799 16.012 17.1572C16.2066 16.9359 16.844 16.1866 17.0653 15.8532C17.2866 15.5199 17.5093 15.5759 17.8146 15.6866C18.12 15.7972 19.756 16.6026 20.088 16.7692C20.4213 16.9359 20.6426 17.0186 20.7253 17.1572C20.808 17.2946 20.808 17.9612 20.5306 18.7386Z" fill="black"/>
</svg>
