<svg width="24" height="18" viewBox="0 0 24 18" fill="none" xmlns="http://www.w3.org/2000/svg">
<path d="M23.2222 0.325195H0.777814C0.348263 0.325195 0 0.673511 0 1.10311V16.8975C0 17.3271 0.348263 17.6754 0.777814 17.6754H23.2221C23.6517 17.6754 24 17.3272 24 16.8975V1.10311C24 0.673511 23.6518 0.325195 23.2222 0.325195ZM21.2377 13.6716C21.5671 13.9575 21.6023 14.4562 21.3165 14.7856C21.0306 15.1149 20.532 15.1504 20.2024 14.8644C19.9984 14.6873 14.8491 10.2181 14.6506 10.0459L12.5176 11.8972C12.3692 12.0261 12.1846 12.0905 12 12.0905C11.8154 12.0905 11.6308 12.0261 11.4824 11.8972L9.34936 10.0459C9.15088 10.2182 4.00163 14.6873 3.79757 14.8644C3.46816 15.1503 2.96937 15.115 2.6835 14.7856C2.39762 14.4562 2.43289 13.9575 2.76231 13.6716L8.14457 9.00024L2.76231 4.32899C2.43295 4.04311 2.39767 3.54438 2.6835 3.21496C2.96942 2.8856 3.46816 2.85022 3.79757 3.1362C4.06449 3.36785 11.5154 9.8346 12 10.2552C12.4197 9.89093 19.9132 3.38728 20.2024 3.1362C20.5318 2.85027 21.0306 2.8855 21.3165 3.21496C21.6024 3.54438 21.5671 4.04316 21.2377 4.32899L15.8554 9.00024L21.2377 13.6716Z" fill="black"/>
</svg>
