<svg width="24" height="24" viewBox="0 0 24 24" fill="none" xmlns="http://www.w3.org/2000/svg">
<path d="M23.743 18.1991C22.8496 16.5102 19.7472 14.6789 19.6106 14.5988C19.2119 14.3719 18.7959 14.2518 18.4066 14.2518C17.8278 14.2518 17.3539 14.5169 17.067 14.9992C16.6131 15.542 16.0503 16.1765 15.9137 16.2748C14.8566 16.992 14.029 16.9106 13.1134 15.995L8.00299 10.8841C7.09313 9.97427 7.00948 9.13648 7.7218 8.08513C7.82146 7.94765 8.45592 7.38438 8.99873 6.93011C9.34488 6.72411 9.58247 6.418 9.68658 6.04249C9.82495 5.54284 9.72306 4.9551 9.39649 4.38248C9.31952 4.25079 7.48733 1.1479 5.79929 0.254941C5.48429 0.0880946 5.12924 0 4.7733 0C4.18689 0 3.63519 0.22869 3.22052 0.642913L2.09131 1.77168C0.305393 3.55715 -0.34108 5.58111 0.168801 7.78703C0.594147 9.62545 1.8337 11.5818 3.85365 13.6013L10.3962 20.1439C12.9528 22.7004 15.39 23.9969 17.6405 23.9969C17.6405 23.9969 17.6405 23.9969 17.6409 23.9969C19.296 23.9969 20.839 23.2935 22.2258 21.9066L23.3546 20.7779C24.0407 20.0922 24.1964 19.0556 23.743 18.1991Z" fill="black"/>
</svg>
