<svg width="24" height="14" viewBox="0 0 24 14" fill="none" xmlns="http://www.w3.org/2000/svg">
<path d="M21.6406 0.990181C21.2942 0.997922 20.9654 1.1065 20.7239 1.29292L6.99995 11.5859L2.60932 8.29292C2.48646 8.19694 2.33931 8.12032 2.17647 8.06753C2.01363 8.01475 1.83839 7.98686 1.661 7.98551C1.48361 7.98416 1.30765 8.00936 1.14341 8.05965C0.979173 8.10994 0.829967 8.1843 0.704529 8.27838C0.57909 8.37246 0.479941 8.48436 0.412889 8.60754C0.345837 8.73072 0.312229 8.86269 0.314034 8.99573C0.315839 9.12877 0.353019 9.26021 0.423399 9.38233C0.493779 9.50446 0.595943 9.61483 0.723908 9.70698L6.05724 13.707C6.3073 13.8944 6.64639 13.9998 6.99995 13.9998C7.35351 13.9998 7.6926 13.8944 7.94266 13.707L22.6093 2.70698C22.802 2.56652 22.9336 2.38567 22.9869 2.18815C23.0401 1.99063 23.0126 1.78565 22.9079 1.60007C22.8032 1.41448 22.6262 1.25695 22.4 1.14812C22.1739 1.03929 21.9092 0.98424 21.6406 0.990181Z" fill="black"/>
</svg>
