<svg width="25" height="32" viewBox="0 0 25 32" fill="none" xmlns="http://www.w3.org/2000/svg">
<path d="M23.4881 0.00104749C23.1066 0.0196984 22.7445 0.281301 22.4785 0.730432L7.36362 25.5295L2.528 17.5957C2.39269 17.3645 2.23061 17.1799 2.05127 17.0527C1.87193 16.9255 1.67892 16.8583 1.48356 16.8551C1.28819 16.8518 1.09439 16.9125 0.91351 17.0337C0.732628 17.1548 0.5683 17.334 0.430148 17.5607C0.291996 17.7873 0.182799 18.057 0.10895 18.3537C0.0351025 18.6505 -0.00191166 18.9685 7.60101e-05 19.289C0.00206368 19.6095 0.0430128 19.9262 0.120526 20.2205C0.198039 20.5147 0.310557 20.7806 0.451491 21.0026L6.32537 30.6399C6.60077 31.0916 6.97422 31.3453 7.36362 31.3453C7.75302 31.3453 8.12647 31.0916 8.40187 30.6399L24.555 4.13737C24.7672 3.79895 24.9122 3.36324 24.9708 2.88735C25.0295 2.41146 24.9992 1.91759 24.8839 1.47046C24.7685 1.02332 24.5736 0.64378 24.3245 0.381576C24.0754 0.119372 23.7839 -0.0132648 23.4881 0.00104749Z" fill="black"/>
</svg>
