<svg width="28" height="28" viewBox="0 0 28 28" fill="none" xmlns="http://www.w3.org/2000/svg">
<path d="M23.4361 4.57056C20.6601 1.79322 16.8734 0.39189 12.8974 0.71189C7.5521 1.14122 2.86677 4.85856 1.29877 9.98656C0.17877 13.6506 0.649437 17.4759 2.47344 20.6359L0.745437 26.3732C0.580103 26.9239 1.08277 27.4426 1.63877 27.2946L7.6441 25.6852C9.58944 26.7466 11.7788 27.3052 14.0081 27.3066H14.0134C19.6068 27.3066 24.7748 23.8852 26.5628 18.5852C28.3041 13.4172 27.0161 8.15456 23.4361 4.57056ZM20.5308 18.7386C20.2534 19.5159 18.8948 20.2652 18.2841 20.3199C17.6734 20.3759 17.1014 20.5959 14.2908 19.4879C10.9081 18.1546 8.7721 14.6866 8.60677 14.4652C8.4401 14.2426 7.2481 12.6612 7.2481 11.0239C7.2481 9.38656 8.1081 8.58122 8.41344 8.24922C8.71877 7.91589 9.07877 7.83322 9.30144 7.83322C9.52277 7.83322 9.74544 7.83322 9.93877 7.84122C10.1761 7.85056 10.4388 7.86256 10.6881 8.41589C10.9841 9.07456 11.6308 10.7199 11.7134 10.8866C11.7961 11.0532 11.8521 11.2479 11.7414 11.4692C11.6308 11.6906 11.5748 11.8292 11.4094 12.0239C11.2428 12.2186 11.0601 12.4572 10.9108 12.6066C10.7441 12.7719 10.5708 12.9532 10.7641 13.2852C10.9588 13.6186 11.6254 14.7079 12.6148 15.5892C13.8868 16.7226 14.9574 17.0732 15.2908 17.2412C15.6241 17.4079 15.8174 17.3799 16.0121 17.1572C16.2068 16.9359 16.8441 16.1866 17.0654 15.8532C17.2868 15.5199 17.5094 15.5759 17.8148 15.6866C18.1201 15.7972 19.7561 16.6026 20.0881 16.7692C20.4214 16.9359 20.6428 17.0186 20.7254 17.1572C20.8081 17.2946 20.8081 17.9612 20.5308 18.7386Z" fill="white"/>
</svg>
